<?xml version="1.0" encoding="UTF-8" ?>
<!DOCTYPE svg PUBLIC "-//W3C//DTD SVG 1.1//EN" "http://www.w3.org/Graphics/SVG/1.1/DTD/svg11.dtd">
<svg width="200pt" height="200pt" viewBox="0 0 200 200" version="1.1" xmlns="http://www.w3.org/2000/svg">
<g id="#ffcc00ff">
<path fill="#ffcc00" opacity="1.00" d=" M 11.69 28.05 C 22.91 28.48 34.16 28.48 45.38 28.05 C 45.37 30.00 45.38 31.95 45.39 33.90 C 41.86 34.25 36.20 33.47 35.25 38.09 C 34.29 47.01 35.06 56.04 34.81 65.00 C 50.31 65.00 65.81 65.00 81.31 65.00 C 81.27 56.67 81.39 48.34 81.26 40.01 C 81.14 37.75 81.02 34.69 78.54 33.72 C 76.00 32.89 73.26 33.11 70.62 32.92 C 70.63 31.29 70.64 29.65 70.64 28.02 C 81.87 28.29 93.11 28.31 104.34 28.02 C 104.34 29.65 104.35 31.28 104.36 32.91 C 101.40 33.22 98.05 32.71 95.46 34.47 C 93.62 36.05 93.85 38.76 93.69 40.95 C 93.64 51.62 93.69 62.30 93.67 72.97 C 89.90 72.95 86.13 72.95 82.36 72.76 C 79.36 71.65 76.14 72.04 73.02 71.99 C 60.28 72.01 47.55 71.99 34.81 72.00 C 34.85 81.34 34.74 90.68 34.86 100.01 C 35.00 102.38 35.02 105.35 37.24 106.82 C 39.72 108.16 42.68 107.81 45.40 108.11 C 45.38 109.73 45.37 111.35 45.37 112.98 C 34.15 112.63 22.92 112.78 11.69 113.02 C 11.69 111.05 11.68 109.08 11.67 107.11 C 14.57 106.77 17.88 107.21 20.38 105.38 C 22.62 103.25 22.31 99.85 22.47 97.02 C 22.45 78.68 22.51 60.34 22.44 41.99 C 22.28 39.57 22.33 36.42 19.93 35.03 C 17.36 33.84 14.42 34.16 11.67 33.91 C 11.68 31.96 11.69 30.00 11.69 28.05 Z" />
<path fill="#ffcc00" opacity="1.00" d=" M 102.41 41.01 C 103.27 40.25 104.18 39.54 105.13 38.90 C 106.54 39.06 107.45 40.28 108.56 41.01 C 107.44 41.74 106.51 42.98 105.09 43.09 C 104.15 42.45 103.26 41.76 102.41 41.01 Z" />
<path fill="#ffcc00" opacity="1.00" d=" M 122.61 50.04 C 125.06 48.21 126.18 45.23 128.51 43.30 C 128.68 44.86 128.82 46.43 128.91 48.00 C 130.61 48.00 132.32 48.00 134.03 48.00 C 134.03 48.50 134.03 49.50 134.03 50.00 C 132.29 50.00 130.55 50.00 128.82 50.00 C 128.83 54.03 128.60 58.09 129.22 62.10 C 131.06 61.63 132.89 61.12 134.74 60.72 C 133.06 63.72 127.90 65.58 125.72 62.21 C 124.86 58.26 125.51 54.14 125.34 50.13 C 124.66 50.11 123.29 50.06 122.61 50.04 Z" />
<path fill="#ffcc00" opacity="1.00" d=" M 113.75 47.75 C 116.09 46.36 118.82 47.33 121.22 47.99 C 121.26 49.76 121.26 51.53 121.22 53.30 C 119.64 51.39 116.72 46.74 114.28 50.35 C 113.49 55.61 122.55 54.65 122.15 59.99 C 121.89 65.32 115.20 65.88 111.43 63.88 C 111.19 61.96 110.99 60.03 110.85 58.10 C 113.49 59.06 113.67 63.72 116.92 62.88 C 118.75 62.95 118.94 60.34 118.27 59.15 C 116.39 57.14 113.55 56.31 111.80 54.16 C 110.29 51.99 111.45 48.83 113.75 47.75 Z" />
<path fill="#ffcc00" opacity="1.00" d=" M 141.21 47.26 C 146.61 45.73 152.43 50.39 151.98 56.02 C 152.26 62.08 145.34 67.17 139.77 64.13 C 132.66 61.05 133.68 49.09 141.21 47.26 M 142.23 49.16 C 137.38 51.58 137.75 60.10 142.23 62.74 C 146.19 64.18 148.40 59.18 148.03 55.97 C 148.11 52.82 146.12 48.13 142.23 49.16 Z" />
<path fill="#ffcc00" opacity="1.00" d=" M 159.08 49.84 C 161.09 48.17 163.36 46.02 165.97 47.91 C 168.88 48.01 171.81 47.96 174.71 48.33 C 173.79 49.24 172.84 50.10 171.86 50.93 C 172.84 53.63 173.83 56.32 174.82 59.01 C 175.89 56.31 176.95 53.61 178.01 50.90 C 176.84 50.27 176.19 49.39 176.06 48.23 C 178.57 47.93 181.11 48.05 183.62 48.26 C 182.53 49.59 181.03 50.58 180.20 52.11 C 177.35 58.06 175.12 64.32 172.15 70.21 C 170.60 72.80 167.17 72.17 165.58 69.98 C 166.95 68.46 168.66 67.67 170.74 68.24 C 171.47 66.48 172.23 64.73 172.99 62.99 C 170.88 58.63 170.00 53.56 166.93 49.75 C 164.88 51.14 162.60 50.90 160.40 50.08 C 158.69 53.61 159.31 57.68 159.53 61.46 C 160.67 61.79 161.83 62.07 163.00 62.28 C 163.00 62.69 163.00 63.53 163.00 63.94 C 159.39 63.69 155.58 64.54 152.15 63.11 C 153.07 62.67 154.91 61.80 155.83 61.37 C 155.87 57.79 155.85 54.20 155.87 50.62 C 155.25 50.23 153.99 49.45 153.37 49.06 C 155.41 48.42 157.46 47.79 159.53 47.23 C 159.42 47.88 159.19 49.19 159.08 49.84 Z" />
<path fill="#ffcc00" opacity="1.00" d=" M 101.66 49.57 C 103.52 48.70 105.44 47.94 107.36 47.19 C 107.31 51.92 107.30 56.65 107.31 61.38 C 108.18 61.83 109.91 62.72 110.77 63.17 C 107.44 64.44 103.70 64.26 100.32 63.25 C 101.20 62.78 102.96 61.84 103.84 61.37 C 103.46 57.37 105.18 52.56 101.66 49.57 Z" />
<path fill="#ffcc00" opacity="1.00" d=" M 81.31 80.18 C 85.43 79.87 89.55 80.02 93.67 80.00 C 93.79 87.02 93.41 94.05 93.88 101.06 C 93.85 103.37 95.48 105.10 96.86 106.76 C 96.87 108.76 96.88 110.76 96.89 112.77 C 88.14 112.55 79.39 112.69 70.65 112.99 C 70.64 111.03 70.63 109.07 70.62 107.12 C 74.14 106.76 79.60 107.38 80.73 102.93 C 81.94 95.43 81.03 87.75 81.31 80.18 Z" />
</g>
<g id="#000000ff">
<path fill="#000000" opacity="1.00" d=" M 65.22 90.89 C 65.74 84.74 66.26 78.60 66.79 72.45 C 71.98 72.64 77.17 72.86 82.36 72.76 C 86.13 72.95 89.90 72.95 93.67 72.97 C 109.27 73.08 124.87 72.88 140.47 72.45 C 140.17 78.59 139.87 84.74 139.58 90.89 C 137.26 90.89 134.94 90.90 132.62 90.91 C 132.09 87.36 132.85 81.99 128.53 80.63 C 122.20 79.36 115.66 80.25 109.25 80.00 C 109.27 101.02 109.23 122.05 109.26 143.07 C 109.44 145.62 109.29 148.82 111.57 150.53 C 114.08 152.04 117.17 151.80 119.98 152.18 C 119.95 153.78 119.93 155.38 119.91 156.98 C 108.69 156.78 97.46 156.96 86.23 157.01 C 86.21 155.40 86.19 153.79 86.16 152.19 C 89.12 151.74 92.59 152.14 95.01 150.08 C 96.92 147.89 96.75 144.75 96.89 142.04 C 96.91 132.28 96.88 122.52 96.89 112.77 C 96.88 110.76 96.87 108.76 96.86 106.76 C 96.91 97.84 96.89 88.92 96.89 80.00 C 96.09 80.00 94.48 80.00 93.67 80.00 C 89.55 80.02 85.43 79.87 81.31 80.18 C 75.28 79.95 73.50 86.22 72.42 90.90 C 70.02 90.89 67.62 90.89 65.22 90.89 Z" />
<path fill="#000000" opacity="1.00" d=" M 146.84 103.70 C 148.97 102.69 151.12 101.71 153.27 100.76 C 153.09 109.14 153.19 117.52 153.19 125.90 C 154.00 126.17 155.63 126.73 156.44 127.01 C 154.04 127.92 151.51 129.52 148.89 128.38 C 146.39 128.64 143.52 129.60 141.34 127.81 C 136.41 124.28 137.03 116.09 141.83 112.71 C 144.07 110.79 147.15 111.14 149.87 111.22 C 149.73 108.35 150.20 104.94 146.84 103.70 M 145.20 113.23 C 141.05 115.09 140.61 121.02 142.50 124.66 C 143.79 127.26 147.53 127.74 149.42 125.52 C 149.92 122.15 149.86 118.69 149.51 115.32 C 149.32 113.33 146.83 112.59 145.20 113.23 Z" />
<path fill="#000000" opacity="1.00" d=" M 124.34 111.54 C 129.44 109.47 135.78 113.37 135.93 118.95 C 136.91 125.07 130.33 131.06 124.38 128.40 C 117.10 125.89 117.23 114.17 124.34 111.54 M 126.23 113.16 C 121.51 115.52 121.86 123.32 125.63 126.42 C 129.12 128.59 132.19 124.28 132.01 121.06 C 132.41 117.67 130.57 112.13 126.23 113.16 Z" />
<path fill="#000000" opacity="1.00" d=" M 162.04 111.99 C 164.34 110.20 168.55 110.94 169.24 114.03 C 169.77 118.18 169.40 122.38 169.51 126.55 C 170.37 126.33 172.07 125.89 172.92 125.67 C 171.87 127.05 171.03 129.12 169.01 129.29 C 167.80 128.99 166.60 128.62 165.43 128.19 C 162.55 127.82 157.75 128.77 156.96 124.93 C 156.89 120.16 162.83 119.80 166.24 118.76 C 165.62 116.88 166.47 113.62 163.97 113.05 C 160.39 112.42 161.43 118.59 157.73 118.19 C 156.50 115.10 159.95 113.42 162.04 111.99 M 160.55 121.89 C 160.58 123.20 160.62 124.51 160.68 125.81 C 162.44 125.91 164.21 125.99 165.98 126.06 C 165.97 124.34 165.95 122.62 165.94 120.90 C 164.14 121.22 162.35 121.55 160.55 121.89 Z" />
<path fill="#000000" opacity="1.00" d=" M 172.48 112.04 C 175.54 111.98 178.61 112.03 181.67 112.20 C 180.76 113.13 179.84 114.05 178.90 114.95 C 179.85 117.64 180.83 120.32 181.82 123.00 C 182.87 120.38 183.88 117.74 184.89 115.11 C 184.19 114.16 183.52 113.20 182.88 112.21 C 185.41 112.05 187.95 112.04 190.49 112.09 C 184.44 118.38 183.28 127.55 178.71 134.76 C 177.28 136.74 172.72 136.33 173.40 133.36 C 174.12 131.60 176.33 132.43 177.76 132.04 C 178.50 130.36 179.25 128.68 179.99 127.00 C 177.78 121.88 176.42 116.21 172.48 112.04 Z" />
</g>
</svg>
