<?xml version="1.0" encoding="UTF-8" ?>
<!DOCTYPE svg PUBLIC "-//W3C//DTD SVG 1.1//EN" "http://www.w3.org/Graphics/SVG/1.1/DTD/svg11.dtd">
<svg width="300pt" height="200pt" viewBox="0 0 300 200" version="1.1" xmlns="http://www.w3.org/2000/svg">
<g id="#00897bff">
<path fill="#00897b" opacity="1.00" d=" M 11.69 28.06 C 22.91 28.48 34.15 28.48 45.38 28.05 C 45.38 30.00 45.38 31.94 45.38 33.89 C 41.89 34.28 36.21 33.46 35.26 38.06 C 34.27 46.98 35.07 56.03 34.81 65.00 C 50.31 65.00 65.81 65.00 81.31 65.00 C 81.27 56.67 81.40 48.34 81.26 40.02 C 81.13 37.76 81.03 34.68 78.53 33.72 C 75.99 32.91 73.26 33.10 70.63 32.92 C 70.64 31.28 70.64 29.65 70.64 28.02 C 81.87 28.29 93.11 28.30 104.34 28.02 C 104.34 29.65 104.35 31.27 104.35 32.90 C 101.58 33.15 98.62 32.86 96.03 34.08 C 93.58 35.44 93.86 38.67 93.68 41.06 C 93.64 51.70 93.69 62.33 93.67 72.97 C 89.79 72.95 85.91 72.95 82.04 72.80 L 80.43 72.11 C 65.23 71.86 50.02 72.07 34.81 72.00 C 34.85 81.31 34.74 90.62 34.85 99.93 C 35.01 102.31 35.00 105.27 37.19 106.79 C 39.67 108.16 42.66 107.81 45.39 108.11 C 45.38 109.73 45.37 111.36 45.37 112.98 C 34.15 112.64 22.92 112.78 11.69 113.02 C 11.69 111.05 11.68 109.08 11.68 107.12 C 14.57 106.76 17.89 107.21 20.38 105.37 C 22.64 103.23 22.29 99.78 22.47 96.93 C 22.46 78.96 22.48 60.99 22.47 43.02 C 22.28 40.32 22.61 36.75 20.01 35.08 C 17.43 33.85 14.45 34.17 11.68 33.90 C 11.68 31.95 11.69 30.00 11.69 28.06 Z" />
<path fill="#00897b" opacity="1.00" d=" M 104.32 39.32 C 106.44 37.71 109.47 41.52 106.65 42.67 C 104.45 44.30 101.39 40.51 104.32 39.32 Z" />
<path fill="#00897b" opacity="1.00" d=" M 122.68 50.01 C 125.27 48.34 125.83 44.75 128.70 43.54 C 128.76 45.02 128.81 46.51 128.85 48.00 C 130.57 48.00 132.30 48.00 134.03 48.00 C 134.03 48.50 134.03 49.50 134.03 50.00 C 132.29 50.00 130.55 50.00 128.82 50.00 C 128.80 54.02 128.69 58.05 129.14 62.05 C 130.94 61.63 132.73 61.16 134.54 60.77 C 133.04 63.87 127.85 65.47 125.74 62.24 C 124.85 58.29 125.50 54.16 125.34 50.14 C 124.68 50.11 123.35 50.05 122.68 50.01 Z" />
<path fill="#00897b" opacity="1.00" d=" M 111.19 51.12 C 112.13 46.55 117.74 46.43 121.22 48.00 C 121.25 49.67 121.26 51.34 121.24 53.02 C 119.97 51.84 118.89 50.49 117.66 49.27 C 116.20 48.53 114.27 49.38 114.08 51.06 C 114.73 55.62 122.33 54.89 122.15 59.98 C 121.89 65.36 115.14 65.89 111.36 63.80 C 111.17 61.97 111.01 60.14 110.90 58.31 C 113.00 59.11 113.47 61.53 115.12 62.84 C 117.06 63.62 119.16 62.13 118.61 59.97 C 116.94 56.41 110.41 56.00 111.19 51.12 Z" />
<path fill="#00897b" opacity="1.00" d=" M 141.23 47.25 C 146.62 45.74 152.42 50.40 151.97 56.01 C 152.27 62.06 145.37 67.15 139.80 64.14 C 132.65 61.08 133.67 49.06 141.23 47.25 M 142.19 49.17 C 137.53 51.56 137.86 59.28 141.59 62.40 C 145.06 64.62 148.17 60.33 148.01 57.11 C 148.42 53.70 146.59 48.10 142.19 49.17 Z" />
<path fill="#00897b" opacity="1.00" d=" M 159.12 49.91 C 161.04 48.22 163.31 46.03 165.90 47.90 C 168.77 48.04 171.65 48.01 174.53 48.18 C 173.79 49.20 172.91 50.08 171.90 50.83 C 172.79 53.58 173.80 56.29 174.82 58.99 C 175.91 56.30 176.96 53.59 177.98 50.87 C 177.15 50.02 176.35 49.16 175.56 48.28 C 178.21 48.07 180.86 48.04 183.52 48.17 C 177.37 54.32 176.27 63.56 171.75 70.77 C 170.28 72.70 165.75 72.35 166.39 69.34 C 167.12 67.56 169.25 68.33 170.71 68.24 C 171.47 66.49 172.23 64.74 172.99 62.99 C 171.19 58.78 169.79 54.39 167.70 50.32 C 165.32 50.08 162.89 51.33 160.60 49.99 C 158.55 53.42 159.34 57.61 159.53 61.39 C 160.67 61.75 161.82 62.06 163.00 62.32 C 163.00 62.72 163.00 63.53 163.00 63.94 C 159.58 63.38 155.23 65.21 152.46 62.65 C 153.30 62.37 154.96 61.83 155.80 61.56 C 155.89 57.91 155.87 54.26 155.84 50.61 C 155.24 50.21 154.05 49.41 153.45 49.01 C 155.47 48.40 157.50 47.81 159.54 47.27 C 159.44 47.93 159.23 49.25 159.12 49.91 Z" />
<path fill="#00897b" opacity="1.00" d=" M 101.62 49.94 C 103.20 48.48 105.45 48.08 107.37 47.23 C 107.32 52.00 107.28 56.76 107.34 61.53 C 108.12 61.84 109.68 62.47 110.46 62.78 C 107.70 64.98 103.61 64.12 100.52 63.13 C 101.34 62.71 102.99 61.86 103.82 61.44 C 103.84 58.24 103.86 55.05 103.76 51.85 C 103.23 51.37 102.16 50.42 101.62 49.94 Z" />
<path fill="#00897b" opacity="1.00" d=" M 81.31 80.18 C 85.42 79.88 89.55 80.01 93.67 80.00 C 93.80 86.99 93.39 94.01 93.88 101.00 C 93.86 103.30 95.45 105.05 96.82 106.71 C 96.83 108.73 96.87 110.75 96.88 112.77 C 88.14 112.55 79.39 112.69 70.65 112.99 C 70.64 111.03 70.64 109.08 70.63 107.13 C 74.14 106.74 79.59 107.38 80.72 102.94 C 81.95 95.43 81.03 87.75 81.31 80.18 Z" />
</g>
<g id="#000000ff">
<path fill="#000000" opacity="1.00" d=" M 82.04 72.80 C 85.91 72.95 89.79 72.95 93.67 72.97 C 109.27 73.08 124.87 72.88 140.46 72.45 C 140.17 78.59 139.87 84.74 139.58 90.89 C 137.25 90.89 134.91 90.89 132.58 90.89 C 132.12 87.35 132.85 82.02 128.56 80.63 C 122.22 79.35 115.67 80.26 109.25 80.01 C 109.27 101.01 109.23 122.01 109.26 143.01 C 109.43 145.57 109.26 148.74 111.50 150.49 C 114.00 152.08 117.12 151.80 119.95 152.13 C 119.94 153.75 119.93 155.36 119.92 156.98 C 108.69 156.78 97.46 156.96 86.22 157.00 C 86.21 155.38 86.20 153.76 86.19 152.14 C 89.15 151.74 92.64 152.18 95.04 150.05 C 96.93 147.87 96.75 144.75 96.89 142.06 C 96.90 132.29 96.89 122.53 96.88 112.77 C 96.87 110.75 96.83 108.73 96.82 106.71 C 96.94 97.81 96.87 88.91 96.89 80.01 C 96.09 80.00 94.48 80.00 93.67 80.00 C 89.55 80.01 85.42 79.88 81.31 80.18 C 75.29 79.95 73.48 86.18 72.46 90.88 C 70.05 90.89 67.64 90.89 65.23 90.90 C 65.73 84.75 66.26 78.60 66.80 72.45 C 71.88 72.64 76.95 72.82 82.04 72.80 Z" />
<path fill="#000000" opacity="1.00" d=" M 146.72 103.80 C 148.88 102.74 151.05 101.72 153.27 100.80 C 153.10 109.17 153.19 117.54 153.18 125.90 C 153.96 126.15 155.52 126.66 156.30 126.92 C 154.43 127.76 152.55 128.60 150.66 129.42 C 150.32 129.05 149.62 128.29 149.28 127.92 C 146.74 128.80 143.67 129.69 141.34 127.81 C 136.22 124.15 137.11 115.51 142.36 112.36 C 144.52 110.74 147.32 111.13 149.83 111.32 C 149.63 108.44 150.48 104.68 146.72 103.80 M 145.15 113.24 C 140.73 115.36 140.32 122.29 143.35 125.74 C 145.11 127.93 149.88 127.06 149.66 123.94 C 149.78 121.06 149.86 118.16 149.51 115.29 C 149.31 113.32 146.78 112.57 145.15 113.24 Z" />
<path fill="#000000" opacity="1.00" d=" M 124.43 111.50 C 129.52 109.52 135.78 113.40 135.93 118.94 C 136.91 125.06 130.35 131.05 124.40 128.40 C 117.06 125.90 117.23 114.06 124.43 111.50 M 126.25 113.15 C 121.37 115.54 121.75 124.13 126.25 126.74 C 130.19 128.15 132.40 123.19 132.03 119.98 C 132.12 116.84 130.13 112.16 126.25 113.15 Z" />
<path fill="#000000" opacity="1.00" d=" M 162.03 112.00 C 164.34 110.17 168.55 110.96 169.27 114.05 C 169.75 118.24 169.36 122.47 169.59 126.67 C 170.33 126.36 171.81 125.76 172.56 125.45 C 172.23 127.45 170.41 129.93 168.11 129.01 C 165.50 128.13 162.74 128.02 160.02 127.76 C 157.52 127.66 155.97 124.48 157.57 122.48 C 159.57 119.85 163.19 119.67 166.14 118.87 C 165.81 116.73 166.38 112.66 163.05 112.99 C 160.20 113.60 161.33 118.86 157.81 117.99 C 156.42 115.02 160.09 113.42 162.03 112.00 M 160.58 121.87 C 160.60 123.19 160.64 124.51 160.69 125.84 C 162.45 125.92 164.21 125.99 165.98 126.05 C 165.97 124.34 165.96 122.62 165.94 120.92 C 164.15 121.22 162.37 121.54 160.58 121.87 Z" />
<path fill="#000000" opacity="1.00" d=" M 172.50 112.07 C 175.53 111.99 178.56 111.97 181.58 112.20 C 180.73 113.13 179.84 114.01 178.92 114.87 C 179.81 117.60 180.81 120.30 181.82 122.99 C 182.91 120.29 183.96 117.59 184.96 114.86 C 184.15 114.00 183.36 113.13 182.58 112.25 C 185.21 112.09 187.85 112.06 190.49 112.14 C 184.40 118.36 183.26 127.56 178.73 134.77 C 176.92 136.83 174.15 135.82 172.59 134.04 C 173.89 132.46 175.72 131.85 177.72 132.20 C 178.47 130.46 179.23 128.73 179.99 126.99 C 177.71 121.91 176.52 116.17 172.50 112.07 Z" />
</g>
</svg>
